<svg xmlns="http://www.w3.org/2000/svg" fill="none" aria-label="Corex" role="img" viewBox="0 0 2600.5 728"><title>Corex</title><path fill="currentColor" d="M280 728q-129 0-204.5-72.5T0 447V281Q0 145 75.5 72.5T280 0q127.5 0 197 70.25t69.5 192.25v6H428V259q0-66.5-36.5-109T280 107.5t-117.5 45.75T120 279v170q0 79 42.5 125.25T280 620.5t111.5-43T428 469v-17.5h118.5v14q0 122-69.5 192.25T280 728m583 0q-74 0-132.25-30.25T639 610.5t-33.5-136V459q0-79 33.5-135.75T730.75 236 863 205.5 995.5 236t92 87.25T1121 459v15.5q0 79-33.5 136t-92 87.25T863 728m0-102q63 0 103.25-40.5t40.25-114V462q0-73.5-39.75-114T863 307.5q-62.5 0-102.75 40.5T720 462v9.5q0 73.5 40.25 114T863 626m345.5 88V219.5H1321v57h17q11.72-30.48 37.61-44.74T1438 217.5h59.5V320H1435q-49.12 0-80.56 26.52T1323 428v286Zm583 14q-74.5 0-130.75-31.5t-87.75-89-31.5-134.5v-12q0-77.5 31-135t86.75-89 129.25-31.5q72 0 125.75 32t83.75 88.75 30 132.25v41h-370q2 58 40.75 93.25T1794.5 628q55.5 0 82.75-24.5T1919 548l94 49q-14 27-40.5 57.75t-70 52-111 21.25M1659 413h252.5q-4-49.5-37.25-78.25T1787.5 306q-54.5 0-87.75 28.75T1659 413"/><path fill="#c9a25e" d="m2068.5 714 184-249.5-181-245H2205l121 171h17l121-171h134l-181.5 245 184 249.5H2465l-122-174h-17l-122 174Z"/></svg>