<svg xmlns="http://www.w3.org/2000/svg" fill="none" aria-label="Corex" role="img" viewBox="0 0 170.02 48"><title>Corex</title><rect width="12" height="12" x="3" y="3" fill="currentColor" rx="2.5"/><rect width="12" height="12" x="33" y="3" fill="currentColor" rx="2.5"/><rect width="12" height="12" x="18" y="18" fill="#ad8643" rx="2.5"/><rect width="12" height="12" x="3" y="33" fill="currentColor" rx="2.5"/><rect width="12" height="12" x="33" y="33" fill="currentColor" rx="2.5"/><rect width="1.5" height="28" x="58" y="10" fill="currentColor" opacity=".35" rx=".75"/><g fill="#ad8643"><path d="M80.77 38q-4.96 0-7.87-2.79Q70 32.42 70 27.2v-6.38q0-5.23 2.9-8.02t7.87-2.8q4.9 0 7.58 2.7t2.67 7.4v.23h-4.56v-.37q0-2.56-1.4-4.2-1.4-1.63-4.3-1.63-2.88 0-4.51 1.76t-1.63 4.84v6.54q0 3.04 1.63 4.82 1.63 1.77 4.52 1.77t4.29-1.65 1.4-4.17v-.68h4.56v.54q0 4.7-2.67 7.4-2.68 2.7-7.58 2.7m22.42 0q-2.85 0-5.09-1.16-2.24-1.17-3.52-3.36-1.3-2.2-1.3-5.23v-.6q0-3.04 1.3-5.22 1.28-2.18 3.52-3.35 2.24-1.18 5.1-1.18 2.84 0 5.09 1.18 2.25 1.17 3.54 3.35 1.28 2.18 1.28 5.22v.6q0 3.04-1.28 5.23-1.3 2.2-3.54 3.36t-5.1 1.16m0-3.92q2.42 0 3.97-1.56t1.55-4.39v-.36q0-2.83-1.53-4.39t-3.99-1.55q-2.4 0-3.95 1.55-1.55 1.56-1.55 4.39v.36q0 2.83 1.55 4.39t3.95 1.56m13.29 3.38V18.44h4.33v2.2h.65q.45-1.18 1.45-1.73 1-.54 2.4-.54h2.28v3.94h-2.4q-1.89 0-3.1 1.02-1.2 1.02-1.2 3.13v11Zm22.42.54q-2.86 0-5.03-1.21-2.16-1.21-3.37-3.43-1.21-2.2-1.21-5.17v-.46q0-2.98 1.19-5.2 1.2-2.2 3.33-3.41 2.15-1.22 4.98-1.22 2.76 0 4.83 1.23t3.22 3.42q1.16 2.18 1.16 5.08v1.58h-14.23q.07 2.23 1.56 3.59 1.5 1.35 3.69 1.35 2.13 0 3.18-.94t1.6-2.13l3.62 1.88q-.54 1.04-1.56 2.22t-2.69 2-4.27.82m-5.1-12.12h9.72q-.16-1.9-1.44-3-1.28-1.11-3.33-1.11-2.1 0-3.38 1.1-1.28 1.11-1.56 3.01"/><path d="m149.55 37.46 7.08-9.6-6.96-9.42h5.13l4.66 6.58h.65l4.66-6.58h5.15l-6.98 9.42 7.08 9.6h-5.22l-4.69-6.7h-.65l-4.7 6.7Z"/></g></svg>